<?xml version="1.0" encoding="UTF-8"?>
<svg xmlns="http://www.w3.org/2000/svg" xmlns:xlink="http://www.w3.org/1999/xlink" width="1012.5pt" height="487.499991pt" viewBox="0 0 1012.5 487.499991" version="1.2">
<defs>
<clipPath id="clip1">
  <path d="M 412 126.371094 L 419 126.371094 L 419 135 L 412 135 Z M 412 126.371094 "/>
</clipPath>
<clipPath id="clip2">
  <path d="M 500 167 L 506.460938 167 L 506.460938 176 L 500 176 Z M 500 167 "/>
</clipPath>
<clipPath id="clip3">
  <path d="M 476 188 L 503 188 L 503 243.007812 L 476 243.007812 Z M 476 188 "/>
</clipPath>
<clipPath id="clip4">
  <path d="M 434 190 L 459 190 L 459 243.007812 L 434 243.007812 Z M 434 190 "/>
</clipPath>
</defs>
<g id="surface1">
<path style=" stroke:none;fill-rule:nonzero;fill:rgb(13.328552%,7.058716%,4.708862%);fill-opacity:1;" d="M 429.933594 174.316406 C 411.421875 178.476562 396 150.730469 396 150.730469 L 396.96875 150.375 C 396.96875 150.375 413.234375 177.28125 429.90625 172.394531 C 430.195312 172.308594 430.382812 172.832031 430.410156 173.355469 C 430.433594 173.886719 430.296875 174.417969 429.933594 174.316406 "/>
<g clip-path="url(#clip1)" clip-rule="nonzero">
<path style=" stroke:none;fill-rule:nonzero;fill:rgb(49.409485%,26.269531%,17.248535%);fill-opacity:1;" d="M 418.070312 130.828125 C 416.882812 133.039062 412.722656 134.230469 412.722656 134.230469 C 412.722656 134.230469 413.445312 130.316406 413.921875 128.808594 C 414.402344 127.304688 416.121094 126.382812 417.179688 126.835938 C 418.238281 127.289062 418.820312 129.4375 418.070312 130.828125 "/>
</g>
<path style=" stroke:none;fill-rule:nonzero;fill:rgb(51.759338%,32.548523%,19.999695%);fill-opacity:1;" d="M 439.816406 175.84375 C 422.429688 171.386719 422.046875 148.703125 420.839844 139.660156 L 420.832031 139.597656 C 420.820312 139.5 420.808594 139.402344 420.792969 139.308594 L 420.78125 139.21875 C 420.292969 135.703125 419.582031 131.632812 413.652344 131.628906 C 407.613281 131.628906 404.699219 133.910156 401.917969 137.300781 C 396.117188 141.714844 385.488281 143.117188 385.78125 149.632812 C 384.308594 152.953125 385.28125 157.398438 388.953125 157.636719 C 392.027344 157.828125 392.710938 155.28125 392.710938 155.28125 C 392.710938 155.28125 397.632812 157.523438 401.414062 152.839844 C 401.445312 152.757812 401.496094 152.675781 401.554688 152.59375 C 402.660156 154.59375 404.398438 156.058594 406.984375 156.386719 C 409.742188 156.730469 412.015625 156.144531 413.871094 155 C 415.773438 163.027344 422.941406 190.007812 434.460938 194.78125 C 439.363281 196.8125 443.636719 176.820312 439.816406 175.84375 "/>
<path style=" stroke:none;fill-rule:nonzero;fill:rgb(42.749023%,26.269531%,15.689087%);fill-opacity:1;" d="M 422.351562 174.125 C 420.417969 169.417969 418.488281 164.398438 417.53125 159.390625 C 417.148438 157.394531 416.855469 155.390625 416.597656 153.371094 C 416.410156 151.902344 416.484375 149.964844 416.109375 148.375 C 414.992188 150.878906 414.195312 153.433594 411.078125 154.007812 C 409.144531 154.367188 406.992188 153.753906 405.191406 153.132812 C 403.269531 152.472656 402.277344 151.121094 400.84375 149.90625 C 399.207031 152.644531 395.613281 155.859375 392.632812 154.082031 C 392.042969 155.738281 390.660156 156.375 388.621094 155.726562 C 387.011719 155.210938 385.863281 153.992188 385.132812 152.542969 C 385.0625 155.09375 386.300781 157.464844 388.953125 157.636719 C 392.027344 157.828125 392.710938 155.28125 392.710938 155.28125 C 392.710938 155.28125 397.632812 157.523438 401.414062 152.839844 C 401.445312 152.757812 401.496094 152.675781 401.554688 152.59375 C 402.660156 154.59375 404.398438 156.058594 406.984375 156.386719 C 409.742188 156.730469 412.015625 156.144531 413.871094 155 C 415.359375 161.285156 420.082031 179.195312 427.589844 188.960938 C 425.789062 184.039062 424.335938 178.960938 422.351562 174.125 "/>
<path style=" stroke:none;fill-rule:nonzero;fill:rgb(43.919373%,27.059937%,16.468811%);fill-opacity:1;" d="M 464.289062 198.574219 C 464.289062 198.574219 454.003906 206.667969 453.148438 208.921875 C 451.875 212.289062 453.671875 217.226562 457.496094 226.777344 C 459.597656 232.03125 461.644531 233.453125 461.660156 235.378906 C 461.679688 237.304688 458.214844 239.023438 458.074219 242.039062 C 455.699219 242.039062 451.707031 242.039062 450.082031 242.039062 C 450.1875 239.023438 454.769531 237.082031 455.871094 235.679688 C 456.972656 234.273438 455.625 229.933594 454.394531 227.402344 C 453.160156 224.871094 445.6875 210.457031 445.6875 210.457031 C 445.6875 210.457031 448.285156 197.085938 444.503906 190.011719 C 444.03125 186.164062 464.289062 198.574219 464.289062 198.574219 "/>
<path style=" stroke:none;fill-rule:nonzero;fill:rgb(43.919373%,27.059937%,16.468811%);fill-opacity:1;" d="M 482.144531 187.308594 C 482.144531 187.308594 482.773438 197.292969 490.332031 204.164062 C 492.398438 206.039062 487.351562 220.292969 487.351562 228.875 C 487.351562 234.527344 489.296875 233.453125 489.320312 235.378906 C 489.335938 237.304688 485.871094 239.023438 485.730469 242.039062 C 483.351562 242.039062 479.363281 242.039062 477.734375 242.039062 C 477.839844 239.023438 484.613281 234.648438 484.613281 234.648438 L 483.972656 208.742188 C 483.972656 208.742188 468.078125 205.617188 464.296875 198.542969 C 463.824219 194.695312 482.144531 187.308594 482.144531 187.308594 "/>
<path style=" stroke:none;fill-rule:nonzero;fill:rgb(23.139954%,11.759949%,4.309082%);fill-opacity:1;" d="M 390.261719 145.199219 C 390.261719 145.199219 390.257812 145.285156 390.257812 145.4375 C 390.25 145.59375 390.253906 145.804688 390.207031 146.074219 C 390.183594 146.210938 390.167969 146.363281 390.136719 146.515625 C 390.097656 146.667969 390.050781 146.828125 390.007812 146.996094 C 389.949219 147.160156 389.882812 147.328125 389.808594 147.5 C 389.726562 147.664062 389.640625 147.832031 389.542969 148 C 389.4375 148.152344 389.351562 148.332031 389.238281 148.488281 C 389.128906 148.648438 389.011719 148.800781 388.867188 148.921875 C 388.734375 149.046875 388.574219 149.132812 388.421875 149.207031 C 388.261719 149.277344 388.113281 149.335938 387.964844 149.363281 C 387.667969 149.429688 387.40625 149.429688 387.226562 149.398438 C 387.042969 149.367188 386.933594 149.316406 386.933594 149.316406 L 386.910156 149.195312 C 386.910156 149.195312 386.96875 149.105469 387.070312 148.976562 C 387.121094 148.90625 387.183594 148.835938 387.25 148.75 C 387.316406 148.671875 387.390625 148.582031 387.472656 148.488281 C 387.632812 148.304688 387.808594 148.105469 388.019531 147.929688 C 388.132812 147.847656 388.25 147.765625 388.378906 147.683594 C 388.511719 147.605469 388.621094 147.496094 388.742188 147.394531 C 388.851562 147.28125 388.953125 147.164062 389.058594 147.046875 C 389.148438 146.917969 389.246094 146.796875 389.339844 146.675781 C 389.421875 146.546875 389.5 146.421875 389.578125 146.304688 C 389.65625 146.183594 389.714844 146.066406 389.773438 145.957031 C 389.835938 145.847656 389.890625 145.746094 389.929688 145.644531 C 389.96875 145.546875 390.003906 145.460938 390.039062 145.390625 C 390.101562 145.25 390.136719 145.171875 390.136719 145.171875 L 390.261719 145.199219 "/>
<path style=" stroke:none;fill-rule:nonzero;fill:rgb(16.079712%,14.118958%,17.248535%);fill-opacity:1;" d="M 407.367188 139.597656 C 407.367188 139.148438 407.550781 138.75 407.84375 138.457031 C 408.140625 138.164062 408.546875 137.984375 408.996094 137.984375 C 409.449219 137.984375 409.851562 138.164062 410.144531 138.457031 C 410.441406 138.75 410.621094 139.148438 410.621094 139.597656 C 410.621094 139.875 410.851562 140.101562 411.132812 140.101562 C 411.414062 140.101562 411.644531 139.875 411.644531 139.597656 C 411.640625 138.148438 410.457031 136.972656 408.996094 136.972656 C 407.535156 136.972656 406.347656 138.148438 406.347656 139.597656 C 406.347656 139.875 406.574219 140.101562 406.859375 140.101562 C 407.140625 140.101562 407.367188 139.875 407.367188 139.597656 "/>
<path style=" stroke:none;fill-rule:nonzero;fill:rgb(51.759338%,32.548523%,19.999695%);fill-opacity:1;" d="M 419.453125 131.917969 C 417.691406 133.714844 413.363281 133.714844 413.363281 133.714844 C 413.363281 133.714844 415.152344 130.148438 416.035156 128.835938 C 416.917969 127.523438 418.828125 127.109375 419.714844 127.835938 C 420.605469 128.5625 420.5625 130.789062 419.453125 131.917969 "/>
<path style=" stroke:none;fill-rule:nonzero;fill:rgb(43.528748%,26.269531%,13.729858%);fill-opacity:1;" d="M 418.832031 131.257812 C 417.515625 132.589844 415.566406 132.269531 415.566406 132.269531 C 415.566406 132.269531 416.28125 130.289062 416.816406 129.492188 C 417.355469 128.691406 418.34375 128.410156 419.027344 128.863281 C 419.710938 129.3125 419.511719 130.570312 418.832031 131.257812 "/>
<path style=" stroke:none;fill-rule:nonzero;fill:rgb(51.759338%,32.548523%,19.999695%);fill-opacity:1;" d="M 477.503906 149.253906 C 470.15625 149.253906 473.09375 157.644531 463.175781 158.996094 L 463.164062 158.996094 C 455.25 160.019531 457.554688 149.253906 451.679688 151.285156 C 442.097656 154.59375 447.898438 171.679688 439.816406 175.84375 C 434.964844 176.835938 434.128906 182.808594 434.128906 190.507812 C 434.128906 196.652344 438.785156 203.476562 448.949219 204.355469 C 460.992188 205.394531 488.105469 200.296875 496.503906 190.097656 C 503 182.214844 497.449219 149.253906 477.503906 149.253906 "/>
<path style=" stroke:none;fill-rule:nonzero;fill:rgb(42.749023%,26.269531%,15.689087%);fill-opacity:1;" d="M 457.824219 163.210938 C 462.085938 167.585938 474.644531 171.570312 476.527344 162.578125 C 477.542969 157.734375 475.855469 153.15625 479.644531 149.394531 C 478.949219 149.308594 478.238281 149.253906 477.503906 149.253906 C 470.15625 149.253906 473.09375 157.644531 463.175781 158.996094 L 463.164062 158.996094 C 455.441406 159.992188 457.445312 149.777344 452.085938 151.167969 C 455.449219 153.421875 455.242188 160.566406 457.824219 163.210938 "/>
<g clip-path="url(#clip2)" clip-rule="nonzero">
<path style=" stroke:none;fill-rule:nonzero;fill:rgb(51.759338%,32.548523%,19.999695%);fill-opacity:1;" d="M 503.972656 171.527344 C 504.914062 175.199219 506.675781 175.109375 506.675781 175.109375 C 506.675781 175.109375 504.164062 176.242188 501.890625 173.339844 C 500.316406 171.332031 500.457031 167.046875 500.457031 167.046875 C 500.457031 167.046875 503.3125 168.953125 503.972656 171.527344 "/>
</g>
<path style=" stroke:none;fill-rule:nonzero;fill:rgb(51.759338%,32.548523%,19.999695%);fill-opacity:1;" d="M 500.867188 167.980469 C 500.867188 167.980469 500.691406 167.820312 500.394531 167.535156 C 500.097656 167.242188 499.65625 166.851562 499.15625 166.335938 C 498.65625 165.824219 498.074219 165.230469 497.449219 164.59375 C 497.140625 164.273438 496.816406 163.953125 496.488281 163.625 C 496.160156 163.300781 495.832031 162.964844 495.488281 162.652344 C 495.144531 162.335938 494.8125 162.015625 494.46875 161.710938 C 494.121094 161.421875 493.777344 161.132812 493.445312 160.855469 C 493.121094 160.570312 492.773438 160.332031 492.457031 160.097656 C 492.140625 159.863281 491.84375 159.640625 491.566406 159.433594 C 490.40625 158.683594 489.636719 158.1875 489.636719 158.1875 L 491.089844 156.144531 C 491.089844 156.144531 491.277344 156.304688 491.605469 156.582031 C 491.929688 156.863281 492.398438 157.253906 492.949219 157.734375 C 493.214844 157.992188 493.5 158.265625 493.804688 158.558594 C 494.101562 158.855469 494.433594 159.148438 494.734375 159.492188 C 495.039062 159.832031 495.359375 160.179688 495.679688 160.53125 C 495.996094 160.890625 496.292969 161.269531 496.605469 161.640625 C 496.917969 162.007812 497.199219 162.394531 497.488281 162.765625 C 497.777344 163.136719 498.054688 163.503906 498.316406 163.863281 C 498.847656 164.566406 499.34375 165.230469 499.769531 165.792969 C 500.1875 166.359375 500.578125 166.8125 500.828125 167.136719 C 501.089844 167.460938 501.238281 167.644531 501.238281 167.644531 L 500.867188 167.980469 "/>
<g clip-path="url(#clip3)" clip-rule="nonzero">
<path style=" stroke:none;fill-rule:nonzero;fill:rgb(51.759338%,32.548523%,19.999695%);fill-opacity:1;" d="M 493.878906 188.289062 C 493.878906 188.289062 494.507812 198.277344 502.070312 205.144531 C 504.132812 207.023438 499.085938 221.273438 499.085938 229.859375 C 499.085938 235.507812 501.035156 234.433594 501.050781 236.363281 C 501.070312 238.289062 497.605469 240.003906 497.464844 243.023438 C 495.085938 243.023438 491.097656 243.023438 489.472656 243.023438 C 489.578125 240.003906 496.347656 235.632812 496.347656 235.632812 L 495.707031 209.722656 C 495.707031 209.722656 479.8125 206.601562 476.035156 199.527344 C 475.558594 195.675781 493.878906 188.289062 493.878906 188.289062 "/>
</g>
<g clip-path="url(#clip4)" clip-rule="nonzero">
<path style=" stroke:none;fill-rule:nonzero;fill:rgb(51.759338%,32.548523%,19.999695%);fill-opacity:1;" d="M 458.191406 199.554688 C 458.191406 199.554688 445.980469 210.097656 445.125 212.355469 C 443.847656 215.722656 443.742188 221.273438 443.742188 229.859375 C 443.742188 235.507812 445.691406 234.433594 445.710938 236.363281 C 445.730469 238.289062 442.265625 240.003906 442.125 243.023438 C 439.746094 243.023438 435.757812 243.023438 434.128906 243.023438 C 434.234375 240.003906 441.003906 235.632812 441.003906 235.632812 L 439.585938 211.441406 C 439.585938 211.441406 442.183594 198.070312 438.402344 190.992188 C 437.933594 187.144531 458.191406 199.554688 458.191406 199.554688 "/>
</g>
<path style=" stroke:none;fill-rule:nonzero;fill:rgb(11.369324%,5.879211%,3.529358%);fill-opacity:1;" d="M 397.011719 155.667969 C 397.1875 155.242188 397.078125 151.835938 396.367188 151.007812 C 395.652344 150.175781 394.308594 151.328125 394.574219 153.226562 C 394.671875 153.917969 394.9375 155.4375 394.828125 155.785156 C 394.722656 156.128906 396.835938 156.09375 397.011719 155.667969 "/>
<path style=" stroke:none;fill-rule:nonzero;fill:rgb(20.779419%,12.159729%,9.01947%);fill-opacity:1;" d="M 420.566406 137.816406 C 414.089844 144.816406 396.761719 151.890625 396.761719 151.890625 L 395.96875 149.859375 C 395.96875 149.859375 411.28125 144 420.171875 136.121094 C 420.46875 135.527344 420.820312 136.980469 420.566406 137.816406 "/>
<path style=" stroke:none;fill-rule:nonzero;fill:rgb(20.779419%,12.159729%,9.01947%);fill-opacity:1;" d="M 434.128906 173.527344 C 412.722656 184.328125 395.167969 152.742188 395.167969 152.742188 L 396.367188 152.277344 C 396.367188 152.277344 414.25 182.300781 433.667969 172.257812 C 434.335938 171.914062 434.988281 173.703125 434.128906 173.527344 "/>
<path style=" stroke:none;fill-rule:nonzero;fill:rgb(20.779419%,12.159729%,9.01947%);fill-opacity:1;" d="M 391.84375 142.539062 C 392.621094 143.050781 395.21875 146.402344 395.585938 149.40625 C 395.722656 150.488281 393.703125 152.152344 393.390625 150.261719 C 392.832031 146.867188 390.492188 143.929688 390.046875 143.515625 C 389.734375 143.230469 391.386719 142.238281 391.84375 142.539062 "/>
<path style=" stroke:none;fill-rule:nonzero;fill:rgb(99.21875%,86.669922%,6.269836%);fill-opacity:1;" d="M 396.960938 151.597656 C 397.105469 151.957031 396.925781 152.359375 396.5625 152.5 L 394.78125 153.183594 C 394.417969 153.320312 394.011719 153.144531 393.871094 152.785156 L 393.1875 151.042969 C 393.046875 150.683594 393.226562 150.277344 393.589844 150.140625 L 395.371094 149.457031 C 395.734375 149.316406 396.140625 149.496094 396.28125 149.855469 L 396.960938 151.597656 "/>
<path style=" stroke:none;fill-rule:nonzero;fill:rgb(98.039246%,72.938538%,7.839966%);fill-opacity:1;" d="M 396.601562 152.1875 L 394.820312 152.875 C 394.457031 153.015625 394.050781 152.835938 393.910156 152.476562 L 393.226562 150.734375 C 393.203125 150.671875 393.191406 150.609375 393.183594 150.550781 C 393.125 150.703125 393.125 150.878906 393.1875 151.042969 L 393.871094 152.785156 C 394.011719 153.144531 394.417969 153.320312 394.78125 153.183594 L 396.5625 152.5 C 396.863281 152.382812 397.035156 152.082031 397.007812 151.777344 C 396.941406 151.960938 396.796875 152.113281 396.601562 152.1875 "/>
<path style=" stroke:none;fill-rule:nonzero;fill:rgb(99.609375%,91.369629%,17.649841%);fill-opacity:1;" d="M 396.710938 151.195312 L 396.148438 150.136719 C 396.054688 149.894531 395.820312 149.742188 395.570312 149.742188 C 395.496094 149.742188 395.421875 149.757812 395.347656 149.785156 L 393.726562 150.265625 C 393.765625 150.242188 393.808594 150.214844 393.855469 150.199219 L 395.421875 149.597656 C 395.496094 149.566406 395.570312 149.554688 395.648438 149.554688 C 395.894531 149.554688 396.128906 149.703125 396.222656 149.945312 L 396.710938 151.195312 "/>
<path style=" stroke:none;fill-rule:nonzero;fill:rgb(97.648621%,65.489197%,9.01947%);fill-opacity:1;" d="M 396.335938 151.503906 C 396.429688 151.742188 396.308594 152.011719 396.066406 152.105469 L 394.878906 152.5625 C 394.636719 152.65625 394.367188 152.535156 394.273438 152.296875 L 393.816406 151.132812 C 393.722656 150.894531 393.84375 150.625 394.085938 150.53125 L 395.273438 150.078125 C 395.515625 149.984375 395.785156 150.101562 395.878906 150.34375 L 396.335938 151.503906 "/>
</g>
</svg>
